<?xml version="1.0" encoding="utf-8"?>
<!-- Generator: Adobe Illustrator 24.0.0, SVG Export Plug-In . SVG Version: 6.00 Build 0)  -->
<svg version="1.1" id="Calque_1" xmlns="http://www.w3.org/2000/svg" xmlns:xlink="http://www.w3.org/1999/xlink" x="0px" y="0px"
	 viewBox="0 0 1197 1205" style="enable-background:new 0 0 1197 1205;" xml:space="preserve">
<style type="text/css">
	.st0{fill:#FFFFFF;}
	.st1{fill:#0A9748;}
	.st2{fill:#DDDDDD;stroke:#000000;stroke-width:4;stroke-miterlimit:10;}
	.st3{fill:#565656;}
	.st4{fill:#969696;}
	.st5{fill:#DDDDDD;stroke:#565656;stroke-width:2;stroke-miterlimit:10;}
	.st6{display:none;}
	.st7{display:inline;}
	.st8{clip-path:url(#SVGID_2_);}
	.st9{clip-path:url(#SVGID_4_);}
	.st10{clip-path:url(#SVGID_6_);}
	.st11{clip-path:url(#SVGID_8_);}
	.st12{clip-path:url(#SVGID_10_);}
</style>
<symbol  id="_115" viewBox="-27 -27 54 54">
	<g>
		<circle id="circle445_2_" class="st0" cx="0" cy="0" r="27"/>
		<path id="path447_2_" class="st0" d="M-12.6-23.9C-8.7-25.9-4.4-27,0-27V0L-12.6-23.9z"/>
		<path id="path449_2_" class="st0" d="M-22.2-15.3c2.5-3.6,5.8-6.5,9.7-8.6L0,0L-22.2-15.3z"/>
		<path id="path451_2_" class="st1" d="M-26.8-3.3c0.5-4.3,2.1-8.5,4.6-12.1L0,0L-26.8-3.3z"/>
		<path id="path453_2_" class="st1" d="M-25.2,9.6c-1.5-4.1-2.1-8.5-1.5-12.8L0,0L-25.2,9.6z"/>
		<path id="path455_2_" class="st0" d="M-17.9,20.2c-3.3-2.9-5.8-6.5-7.4-10.6L0,0L-17.9,20.2z"/>
		<path id="path457_2_" class="st0" d="M-6.5,26.2c-4.2-1-8.2-3.1-11.4-6L0,0L-6.5,26.2z"/>
		<path id="path459_2_" class="st0" d="M6.5,26.2c-4.2,1-8.7,1-12.9,0L0,0L6.5,26.2z"/>
		<path id="path461_2_" class="st1" d="M17.9,20.2c-3.3,2.9-7.2,5-11.4,6L0,0L17.9,20.2z"/>
		<path id="path463_2_" class="st1" d="M25.2,9.6c-1.5,4.1-4.1,7.7-7.3,10.6L0,0L25.2,9.6z"/>
		<path id="path465_2_" class="st1" d="M26.8-3.3c0.5,4.3,0,8.7-1.5,12.8L0,0L26.8-3.3z"/>
		<path id="path467_2_" class="st1" d="M22.2-15.3c2.5,3.6,4.1,7.7,4.6,12.1L0,0L22.2-15.3z"/>
		<path id="path469_2_" class="st1" d="M12.5-23.9c3.9,2,7.2,5,9.7,8.6L0,0L12.5-23.9z"/>
		<path id="path471_2_" class="st1" d="M0-27c4.4,0,8.7,1.1,12.5,3.1L0,0V-27z"/>
		<circle id="circle473_2_" class="st0" cx="0" cy="0" r="20.2"/>
		<circle id="circle475_2_" class="st1" cx="0" cy="0" r="13.5"/>
		<circle id="circle477_2_" class="st0" cx="0" cy="0" r="6.8"/>
	</g>
</symbol>
<g id="carré_gris_fond">
	<path class="st2" d="M160.7,12.3h875.5c84.2,0,152.5,68.3,152.5,152.5v875.5c0,84.2-68.3,152.5-152.5,152.5H160.7
		c-84.2,0-152.5-68.3-152.5-152.5V164.7C8.3,80.5,76.5,12.3,160.7,12.3z"/>
</g>
<g id="block_gris">
	<path class="st3" d="M336.8,1058.9h523.3c54.3,0,98.4-44,98.4-98.4V413.6c0-54.3-44-98.4-98.4-98.4H336.8
		c-54.3,0-98.4,44-98.4,98.4v546.9C238.5,1014.9,282.5,1058.9,336.8,1058.9z"/>
</g>
<g id="pince">
	<path class="st4" d="M1108.1,403.5c0-134.6-109.1-243.7-243.7-243.7H332.6C198,159.8,88.9,268.9,88.9,403.5v281.6c0,2.2,1.8,4,4,4
		h124.4c2.2,0,4-1.8,4-4l0,0V417.9c0-66.5,53.9-120.3,120.3-120.3h513.6c66.5,0,120.3,53.9,120.3,120.3v267.2l0,0c0,2.2,1.8,4,4,4
		H1104c2.2,0,4-1.8,4-4L1108.1,403.5L1108.1,403.5z"/>
</g>
<g id="flèche">
	<path class="st5" d="M802.1,975.5c13.6-13.6,17.5-25.1,9.5-42s-27.9-17.9-27.9-17.9h-69c-15.3,0-14.4-13.3-14.4-13.3
		s-0.2-79.8-0.2-110.2c0-30.3-30.3-30.3-30.3-30.3H527.3c0,0-30.3,0-30.3,30.3s-0.2,110.2-0.2,110.2s0.9,13.3-14.4,13.3h-69
		c0,0-19.9,1-27.9,17.9s-4.1,28.3,9.5,42L560.2,1141c0,0,12.2,15.3,38.3,15.3s38.3-15.3,38.3-15.3L802.1,975.5L802.1,975.5z"/>
</g>
<path class="st0" d="M861.4,624.4c-0.8,156.5-143.7,255.7-261.9,260.2c-78.9,3.1-138-36.4-157-50.4c-7.8-5.7-106.9-81.4-106.8-209.7
	c0.1-129.5,101.3-229.5,199.9-255.9c30.8-8.3,55.2-7.4,62.4-7.4C706.7,361.2,862.2,460.5,861.4,624.4z"/>
<g id="Code" class="st6">
	<g class="st7">
		<g>
			<defs>
				<rect id="SVGID_1_" x="357" y="369.8" width="524.2" height="524.2"/>
			</defs>
			<clipPath id="SVGID_2_">
				<use xlink:href="#SVGID_1_"  style="overflow:visible;"/>
			</clipPath>
			<g class="st8">
				<g>
					<g>
						<defs>
							<rect id="SVGID_3_" x="354" y="366.8" width="524.2" height="524.2"/>
						</defs>
						<clipPath id="SVGID_4_">
							<use xlink:href="#SVGID_3_"  style="overflow:visible;"/>
						</clipPath>
						<g class="st9">
							<g>
								<g>
									<defs>
										<rect id="SVGID_5_" x="351" y="366.8" width="524.2" height="524.2"/>
									</defs>
									<clipPath id="SVGID_6_">
										<use xlink:href="#SVGID_5_"  style="overflow:visible;"/>
									</clipPath>
									<g class="st10">
										<g>
											<g>
												<defs>
													<rect id="SVGID_7_" x="348" y="364.8" width="524.2" height="524.2"/>
												</defs>
												<clipPath id="SVGID_8_">
													<use xlink:href="#SVGID_7_"  style="overflow:visible;"/>
												</clipPath>
												<g class="st11">
													<g>
														<g>
															<defs>
																<rect id="SVGID_9_" x="344.9" y="362.6" width="524" height="524"/>
															</defs>
															<clipPath id="SVGID_10_">
																<use xlink:href="#SVGID_9_"  style="overflow:visible;"/>
															</clipPath>
															<g class="st12">
																<g>
																	<defs>
																		<rect id="SVGID_11_" x="339.1" y="360.9" width="523.8" height="523.8"/>
																	</defs>
																	<clipPath id="SVGID_12_">
																		<use xlink:href="#SVGID_11_"  style="overflow:visible;"/>
																	</clipPath>
																	<g transform="matrix(1 0 0 1 0 -6.103516e-05)" style="clip-path:url(#SVGID_12_);">
																		
																			<use xlink:href="#_115"  width="54" height="54" x="-27" y="-27" transform="matrix(9.6992 0 0 -9.6992 598.019 622.7787)" style="overflow:visible;"/>
																	</g>
																</g>
															</g>
														</g>
													</g>
												</g>
											</g>
										</g>
									</g>
								</g>
							</g>
						</g>
					</g>
				</g>
			</g>
		</g>
	</g>
</g>
<path d="M962.6,10.4c76.4,0,152.8,0,229.2,0c-0.3,76.4-0.6,152.7-1,229C1114.8,163,1038.7,86.7,962.6,10.4z"/>
<ellipse class="st1" cx="598.5" cy="622.9" rx="132.6" ry="132.5"/>
<ellipse class="st0" cx="598.5" cy="622.6" rx="66.6" ry="66.6"/>
<path class="st1" d="M599.4,818.7c-0.1,22-0.3,44-0.4,66c-23,0.2-91.4-2.3-157-50.4c-75.2-55.1-95.4-132.5-100.3-154.3
	c-4.8-21.3-16.2-85,12.9-156.2c3.2-7.9,25.2-60,75.5-102.5c25.7-21.7,49.4-33.1,55-35.7c19.7-9.2,37.5-14.3,51.1-17.2
	c5.3,21.4,10.7,42.7,16,64.1c-20.1,5.5-59.5,19.3-93.4,54.9c-45.5,47.9-71.2,125-46,199C439.2,763.6,514,817.1,599.4,818.7z"/>
<path class="st1" d="M782.7,553.3l61.7-22.7c8.8,22.1,26.4,74.8,13.9,140.4c-9.1,47.8-30.2,82.1-43.7,100.6c-18-12.5-36-25-54-37.4
	c10-14.4,26.9-43,32.8-83.1C800,605.9,789,570,782.7,553.3z"/>
</svg>
