<?xml version="1.0" encoding="utf-8"?>
<!-- Generator: Adobe Illustrator 24.0.0, SVG Export Plug-In . SVG Version: 6.00 Build 0)  -->
<svg version="1.1" id="Calque_1" xmlns="http://www.w3.org/2000/svg" xmlns:xlink="http://www.w3.org/1999/xlink" x="0px" y="0px"
	 viewBox="0 0 1197.3 1197.3" style="enable-background:new 0 0 1197.3 1197.3;" xml:space="preserve">
<style type="text/css">
	.st0{fill:#FFFFFF;}
	.st1{fill:#0A9748;}
	.st2{fill:#FF0070;stroke:#231F20;stroke-width:4;stroke-miterlimit:10;}
	.st3{font-family:'LEMONMILK-Bold';}
	.st4{font-size:256.9895px;}
	.st5{display:none;}
	.st6{display:inline;}
	.st7{clip-path:url(#SVGID_2_);}
	.st8{clip-path:url(#SVGID_4_);}
	.st9{clip-path:url(#SVGID_6_);}
	.st10{clip-path:url(#SVGID_8_);}
	.st11{clip-path:url(#SVGID_10_);}
</style>
<symbol  id="_117" viewBox="-27 -27 54 54">
	<g>
		<circle id="circle481_2_" class="st0" cx="0" cy="0" r="27"/>
		<path id="path483_2_" class="st0" d="M-12.6-23.9C-8.7-25.9-4.4-27,0-27V0L-12.6-23.9z"/>
		<path id="path485_2_" class="st1" d="M-22.2-15.3c2.5-3.6,5.8-6.5,9.7-8.6L0,0L-22.2-15.3z"/>
		<path id="path487_2_" class="st0" d="M-26.8-3.3c0.5-4.3,2.1-8.5,4.6-12.1L0,0L-26.8-3.3z"/>
		<path id="path489_2_" class="st1" d="M-25.2,9.6c-1.5-4.1-2.1-8.5-1.5-12.8L0,0L-25.2,9.6z"/>
		<path id="path491_2_" class="st0" d="M-17.9,20.2c-3.3-2.9-5.8-6.5-7.4-10.6L0,0L-17.9,20.2z"/>
		<path id="path493_2_" class="st0" d="M-6.5,26.2c-4.2-1-8.2-3.1-11.4-6L0,0L-6.5,26.2z"/>
		<path id="path495_2_" class="st0" d="M6.5,26.2c-4.2,1-8.7,1-12.9,0L0,0L6.5,26.2z"/>
		<path id="path497_2_" class="st1" d="M17.9,20.2c-3.3,2.9-7.2,5-11.4,6L0,0L17.9,20.2z"/>
		<path id="path499_2_" class="st1" d="M25.2,9.6c-1.5,4.1-4.1,7.7-7.3,10.6L0,0L25.2,9.6z"/>
		<path id="path501_2_" class="st1" d="M26.8-3.3c0.5,4.3,0,8.7-1.5,12.8L0,0L26.8-3.3z"/>
		<path id="path503_2_" class="st1" d="M22.2-15.3c2.5,3.6,4.1,7.7,4.6,12.1L0,0L22.2-15.3z"/>
		<path id="path505_2_" class="st1" d="M12.5-23.9c3.9,2,7.2,5,9.7,8.6L0,0L12.5-23.9z"/>
		<path id="path507_2_" class="st1" d="M0-27c4.4,0,8.7,1.1,12.5,3.1L0,0V-27z"/>
		<circle id="circle509_2_" class="st0" cx="0" cy="0" r="20.2"/>
		<circle id="circle511_2_" class="st1" cx="0" cy="0" r="13.5"/>
		<circle id="circle513_2_" class="st0" cx="0" cy="0" r="6.8"/>
	</g>
</symbol>
<g id="carré_fond">
	<path class="st2" d="M156.7,2.7h884.6c85.1,0,154,69,154,154v884.6c0,85.1-69,154-154,154H156.7c-85.1,0-154-69-154-154V156.7
		C2.7,71.6,71.6,2.7,156.7,2.7z"/>
</g>
<g id="texte">
	<text transform="matrix(1 0 0 1 191.0486 1011.2241)" class="st0 st3 st4">proc</text>
</g>
<path d="M960.8,0c78.8,0,157.6,0,236.5,0c-0.3,78.8-0.6,157.5-1,236.3C1117.8,157.5,1039.3,78.8,960.8,0z"/>
<path class="st1" d="M366.7,567.1l1.3,3.5c20.9-8,41.7-16.1,62.6-24.1c-0.5-1.2-0.9-2.4-1.4-3.6C408.4,551,387.6,559,366.7,567.1z"
	/>
<path class="st1" d="M1523.7,784.3"/>
<path class="st0" d="M864.6,456c-0.5,114.8-78.6,188.8-86.5,196c-8.5,7.8-80,71.5-179.4,70.1c-9.3-0.1-39.9-1.1-77.4-13.1
	c-15.9-5.1-53.3-18.7-89.9-48.5C335,581.6,332.8,461,332.7,456c-0.1-13.9,0.9-54.9,21.1-102.1c3-7,55.8-125,181.8-156.5
	c5.3-1.3,30-7.3,63-7.5c21.8-0.1,74.8,0.1,130.2,30.1c80.8,43.8,110.5,120.5,118.6,142.5C864.1,407.5,864.6,445.3,864.6,456z"/>
<g id="Code" class="st5">
	<g class="st6">
		<g>
			<defs>
				<rect id="SVGID_1_" x="331.8" y="199.4" width="531.7" height="531.7"/>
			</defs>
			<clipPath id="SVGID_2_">
				<use xlink:href="#SVGID_1_"  style="overflow:visible;"/>
			</clipPath>
			<g class="st7">
				<g>
					<g>
						<defs>
							<rect id="SVGID_3_" x="328.8" y="196.4" width="531.7" height="531.7"/>
						</defs>
						<clipPath id="SVGID_4_">
							<use xlink:href="#SVGID_3_"  style="overflow:visible;"/>
						</clipPath>
						<g class="st8">
							<g>
								<g>
									<defs>
										<rect id="SVGID_5_" x="325.7" y="196.4" width="531.7" height="531.7"/>
									</defs>
									<clipPath id="SVGID_6_">
										<use xlink:href="#SVGID_5_"  style="overflow:visible;"/>
									</clipPath>
									<g class="st9">
										<g>
											<g>
												<defs>
													<rect id="SVGID_7_" x="322.7" y="194.4" width="531.7" height="531.7"/>
												</defs>
												<clipPath id="SVGID_8_">
													<use xlink:href="#SVGID_7_"  style="overflow:visible;"/>
												</clipPath>
												<g class="st10">
													<g>
														<g>
															<defs>
																<rect id="SVGID_9_" x="319.5" y="192.2" width="531.5" height="531.5"/>
															</defs>
															<clipPath id="SVGID_10_">
																<use xlink:href="#SVGID_9_"  style="overflow:visible;"/>
															</clipPath>
															<g class="st11">
																<g>
																	<defs>
																		<rect id="SVGID_11_" x="313.6" y="190.3" width="531.4" height="531.4"/>
																	</defs>
																	<clipPath id="SVGID_12_">
																		<use xlink:href="#SVGID_11_"  style="overflow:visible;"/>
																	</clipPath>
																	<g style="clip-path:url(#SVGID_12_);">
																		
																			<use xlink:href="#_117"  width="54" height="54" x="-27" y="-27" transform="matrix(9.8413 0 0 -9.8413 576.3657 456.0057)" style="overflow:visible;"/>
																	</g>
																</g>
															</g>
														</g>
													</g>
												</g>
											</g>
										</g>
									</g>
								</g>
							</g>
						</g>
					</g>
				</g>
			</g>
		</g>
	</g>
</g>
<ellipse class="st1" cx="597.5" cy="455.6" rx="131.4" ry="133.2"/>
<ellipse class="st0" cx="598.3" cy="455.6" rx="66.7" ry="67.6"/>
<path class="st1" d="M598.8,654.8v67.4c-131.9-1.9-243.3-99-262.8-226.1C315.7,363,401.4,232.1,535,197
	c5.4,21.9,10.8,43.8,16.3,65.6c-97.1,24-161.9,117.5-150.1,216.6C413,578.8,498.4,654.7,598.8,654.8z"/>
<path class="st1" d="M785,385.4l62.8-22.9c6.1,16.1,12.7,38,15.6,64.7c2.6,24.1,1.4,45-0.6,61.1c-22.1-2.7-44.3-5.4-66.4-8.1
	c1.7-12.1,2.7-28.3,0.5-47.2C794.6,413.3,789.6,397.1,785,385.4z"/>
<path class="st1" d="M691,632.2c10.3,19.8,20.7,39.6,31,59.3c14.7-7.6,33.1-18.9,52-35.4c19.9-17.4,34.1-35.2,43.7-49.2
	c-18.4-12.7-36.8-25.3-55.2-38c-7.3,10.5-17.9,23.7-32.7,36.6C715.7,617.9,702,626.4,691,632.2z"/>
</svg>
