<?xml version="1.0" encoding="utf-8"?>
<!-- Generator: Adobe Illustrator 24.0.0, SVG Export Plug-In . SVG Version: 6.00 Build 0)  -->
<svg version="1.1" id="Calque_1" xmlns="http://www.w3.org/2000/svg" xmlns:xlink="http://www.w3.org/1999/xlink" x="0px" y="0px"
	 viewBox="0 0 1197.3 1197.3" style="enable-background:new 0 0 1197.3 1197.3;" xml:space="preserve">
<style type="text/css">
	.st0{fill:#FFFFFF;}
	.st1{fill:#0A9748;}
	.st2{fill:#FF0070;stroke:#231F20;stroke-width:4;stroke-miterlimit:10;}
	.st3{font-family:'LEMONMILK-Bold';}
	.st4{font-size:256.9895px;}
	.st5{clip-path:url(#SVGID_2_);}
	.st6{clip-path:url(#SVGID_4_);}
	.st7{clip-path:url(#SVGID_6_);}
	.st8{clip-path:url(#SVGID_8_);}
	.st9{clip-path:url(#SVGID_10_);}
</style>
<symbol  id="_117" viewBox="-27 -27 54 54">
	<g>
		<circle id="circle481_1_" class="st0" cx="0" cy="0" r="27"/>
		<path id="path483_1_" class="st0" d="M-12.6-23.9C-8.7-25.9-4.4-27,0-27V0L-12.6-23.9z"/>
		<path id="path485_1_" class="st1" d="M-22.2-15.3c2.5-3.6,5.8-6.5,9.7-8.6L0,0L-22.2-15.3z"/>
		<path id="path487_1_" class="st0" d="M-26.8-3.3c0.5-4.3,2.1-8.5,4.6-12.1L0,0L-26.8-3.3z"/>
		<path id="path489_1_" class="st1" d="M-25.2,9.6c-1.5-4.1-2.1-8.5-1.5-12.8L0,0L-25.2,9.6z"/>
		<path id="path491_1_" class="st0" d="M-17.9,20.2c-3.3-2.9-5.8-6.5-7.4-10.6L0,0L-17.9,20.2z"/>
		<path id="path493_1_" class="st0" d="M-6.5,26.2c-4.2-1-8.2-3.1-11.4-6L0,0L-6.5,26.2z"/>
		<path id="path495_1_" class="st0" d="M6.5,26.2c-4.2,1-8.7,1-12.9,0L0,0L6.5,26.2z"/>
		<path id="path497_1_" class="st1" d="M17.9,20.2c-3.3,2.9-7.2,5-11.4,6L0,0L17.9,20.2z"/>
		<path id="path499_1_" class="st1" d="M25.2,9.6c-1.5,4.1-4.1,7.7-7.3,10.6L0,0L25.2,9.6z"/>
		<path id="path501_1_" class="st1" d="M26.8-3.3c0.5,4.3,0,8.7-1.5,12.8L0,0L26.8-3.3z"/>
		<path id="path503_1_" class="st1" d="M22.2-15.3c2.5,3.6,4.1,7.7,4.6,12.1L0,0L22.2-15.3z"/>
		<path id="path505_1_" class="st1" d="M12.5-23.9c3.9,2,7.2,5,9.7,8.6L0,0L12.5-23.9z"/>
		<path id="path507_1_" class="st1" d="M0-27c4.4,0,8.7,1.1,12.5,3.1L0,0V-27z"/>
		<circle id="circle509_1_" class="st0" cx="0" cy="0" r="20.2"/>
		<circle id="circle511_1_" class="st1" cx="0" cy="0" r="13.5"/>
		<circle id="circle513_1_" class="st0" cx="0" cy="0" r="6.8"/>
	</g>
</symbol>
<g id="carré_fond">
	<path class="st2" d="M156.7,2.7h884.6c85.1,0,154,69,154,154v884.6c0,85.1-69,154-154,154H156.7c-85.1,0-154-69-154-154V156.7
		C2.7,71.6,71.6,2.7,156.7,2.7z"/>
</g>
<g id="texte">
	<text transform="matrix(1 0 0 1 191.0486 1011.2241)" class="st0 st3 st4">proc</text>
</g>
<g id="Code">
	<g>
		<defs>
			<rect id="SVGID_1_" x="331.8" y="199.4" width="531.7" height="531.7"/>
		</defs>
		<clipPath id="SVGID_2_">
			<use xlink:href="#SVGID_1_"  style="overflow:visible;"/>
		</clipPath>
		<g class="st5">
			<g>
				<defs>
					<rect id="SVGID_3_" x="334.8" y="202.4" width="531.7" height="531.7"/>
				</defs>
				<clipPath id="SVGID_4_">
					<use xlink:href="#SVGID_3_"  style="overflow:visible;"/>
				</clipPath>
				<g class="st6">
					<g>
						<defs>
							<rect id="SVGID_5_" x="337.9" y="202.4" width="531.7" height="531.7"/>
						</defs>
						<clipPath id="SVGID_6_">
							<use xlink:href="#SVGID_5_"  style="overflow:visible;"/>
						</clipPath>
						<g class="st7">
							<g>
								<defs>
									<rect id="SVGID_7_" x="340.9" y="204.4" width="531.7" height="531.7"/>
								</defs>
								<clipPath id="SVGID_8_">
									<use xlink:href="#SVGID_7_"  style="overflow:visible;"/>
								</clipPath>
								<g class="st8">
									<g>
										<defs>
											<rect id="SVGID_9_" x="344.3" y="206.8" width="531.5" height="531.5"/>
										</defs>
										<clipPath id="SVGID_10_">
											<use xlink:href="#SVGID_9_"  style="overflow:visible;"/>
										</clipPath>
										<g class="st9">
											
												<use xlink:href="#_117"  width="54" height="54" x="-27" y="-27" transform="matrix(-9.8413 0 0 9.8413 615.9819 474.4943)" style="overflow:visible;"/>
										</g>
									</g>
								</g>
							</g>
						</g>
					</g>
				</g>
			</g>
		</g>
	</g>
</g>
<path d="M960.8,0c78.8,0,157.6,0,236.5,0c-0.3,78.8-0.6,157.5-1,236.3C1117.8,157.5,1039.3,78.8,960.8,0z"/>
<path class="st1" d="M366.7,567.1l1.3,3.5c20.9-8,41.7-16.1,62.6-24.1c-0.5-1.2-0.9-2.4-1.4-3.6C408.4,551,387.6,559,366.7,567.1z"
	/>
<path class="st0" d="M546.8,731c16.1,4.6,37.6,8.9,63.1,9.6c31.3,0.8,57.2-4.3,75.4-9.4"/>
<path class="st0" d="M863.6,377.5c8.3,26.8,17.3,67.6,14.2,117.3c-1.9,30.8-8,57-14.4,77.4"/>
<path class="st1" d="M858.5,445.5c6.1-0.8,12.2-1.5,18.4-2.3c1.7,17.2,2.4,38.3,0.1,62.3c-2.4,24.9-7.3,46.3-12.5,63.2
	c-0.4-0.1-0.8-0.2-1.2-0.3C861.7,527.4,860.1,486.5,858.5,445.5z"/>
<path class="st1" d="M1523.7,784.3"/>
</svg>
