<?xml version="1.0" encoding="UTF-8"?><svg xmlns="http://www.w3.org/2000/svg" xmlns:xlink="http://www.w3.org/1999/xlink" viewBox="0 0 604 604"><defs><style>.cls-1{fill:none;}.cls-2{clip-path:url(#clippath);}.cls-3,.cls-4{fill:#fff;}.cls-5{fill:#0a9748;}.cls-4{font-family:LEMONMILK-Bold, 'LEMON MILK';font-size:129px;}.cls-6{fill:#3cc5e9;stroke:#231f20;stroke-miterlimit:10;stroke-width:4px;}.cls-7{clip-path:url(#clippath-1);}.cls-8{clip-path:url(#clippath-4);}.cls-9{clip-path:url(#clippath-3);}.cls-10{clip-path:url(#clippath-2);}</style><symbol id="_117" viewBox="0 0 54 54"><g><circle id="circle481" class="cls-3" cx="27" cy="27" r="27"/><path id="path483" class="cls-3" d="M14.4,3.1C18.3,1.1,22.6,0,27,0V27L14.4,3.1Z"/><path id="path485" class="cls-5" d="M4.8,11.7c2.5-3.6,5.8-6.5,9.7-8.6l12.5,23.9L4.8,11.7Z"/><path id="path487" class="cls-3" d="M.2,23.7c.5-4.3,2.1-8.5,4.6-12.1l22.2,15.4L.2,23.7Z"/><path id="path489" class="cls-5" d="M1.8,36.6C.3,32.5-.3,28.1,.3,23.8l26.7,3.2L1.8,36.6Z"/><path id="path491" class="cls-3" d="M9.1,47.2c-3.3-2.9-5.8-6.5-7.4-10.6l25.3-9.6L9.1,47.2Z"/><path id="path493" class="cls-3" d="M20.5,53.2c-4.2-1-8.2-3.1-11.4-6L27,27l-6.5,26.2Z"/><path id="path495" class="cls-3" d="M33.5,53.2c-4.2,1-8.7,1-12.9,0l6.4-26.2,6.5,26.2Z"/><path id="path497" class="cls-5" d="M44.9,47.2c-3.3,2.9-7.2,5-11.4,6l-6.5-26.2,17.9,20.2Z"/><path id="path499" class="cls-5" d="M52.2,36.6c-1.5,4.1-4.1,7.7-7.3,10.6L27,27l25.2,9.6Z"/><path id="path501" class="cls-5" d="M53.8,23.7c.5,4.3,0,8.7-1.5,12.8l-25.3-9.5,26.8-3.3Z"/><path id="path503" class="cls-5" d="M49.2,11.7c2.5,3.6,4.1,7.7,4.6,12.1l-26.8,3.2,22.2-15.3Z"/><path id="path505" class="cls-5" d="M39.5,3.1c3.9,2,7.2,5,9.7,8.6l-22.2,15.3L39.5,3.1Z"/><path id="path507" class="cls-5" d="M27,0c4.4,0,8.7,1.1,12.5,3.1l-12.5,23.9V0Z"/><circle id="circle509" class="cls-3" cx="27" cy="27" r="20.2"/><circle id="circle511" class="cls-5" cx="27" cy="27" r="13.5"/><circle id="circle513" class="cls-3" cx="27" cy="27" r="6.8"/></g></symbol><clipPath id="clippath"><rect class="cls-1" x="168.56" y="102.07" width="266.89" height="266.89"/></clipPath><clipPath id="clippath-1"><rect class="cls-1" x="170.08" y="103.59" width="266.89" height="266.89"/></clipPath><clipPath id="clippath-2"><rect class="cls-1" x="171.61" y="103.59" width="266.89" height="266.89"/></clipPath><clipPath id="clippath-3"><rect class="cls-1" x="173.14" y="104.61" width="266.89" height="266.89"/></clipPath><clipPath id="clippath-4"><rect class="cls-1" x="174.83" y="105.82" width="266.79" height="266.79"/></clipPath></defs><g id="carré_fond"><rect class="cls-6" x="2" y="2" width="600" height="600" rx="77.49" ry="77.49"/></g><g id="texte"><text class="cls-4" transform="translate(97.9 509.6)"><tspan x="0" y="0">proc</tspan></text></g><g id="Code"><g class="cls-2"><g class="cls-7"><g class="cls-10"><g class="cls-9"><g class="cls-8"><use width="54" height="54" transform="translate(443.1 106.8) rotate(-180) scale(4.94 -4.94)" xlink:href="#_117"/></g></g></g></g></g></g></svg>