<?xml version="1.0" encoding="utf-8"?>
<!-- Generator: Adobe Illustrator 24.0.0, SVG Export Plug-In . SVG Version: 6.00 Build 0)  -->
<svg version="1.1" id="Calque_1" xmlns="http://www.w3.org/2000/svg" xmlns:xlink="http://www.w3.org/1999/xlink" x="0px" y="0px"
	 viewBox="0 0 1199 1197" style="enable-background:new 0 0 1199 1197;" xml:space="preserve">
<style type="text/css">
	.st0{fill:#FFFFFF;}
	.st1{fill:#0A9748;}
	.st2{fill:#DDDDDD;stroke:#231F20;stroke-width:4;stroke-miterlimit:10;}
	.st3{fill:#969696;}
	.st4{fill:#565656;}
	.st5{clip-path:url(#SVGID_2_);}
	.st6{clip-path:url(#SVGID_4_);}
	.st7{clip-path:url(#SVGID_6_);}
	.st8{clip-path:url(#SVGID_8_);}
	.st9{clip-path:url(#SVGID_10_);}
	.st10{clip-path:url(#SVGID_12_);}
	.st11{fill:#1D1D1B;}
</style>
<symbol  id="_143" viewBox="-27 -27 54 54">
	<g>
		<circle id="circle553_1_" class="st0" cx="0" cy="0" r="27"/>
		<path id="path555_1_" class="st0" d="M-12.6-23.9C-8.7-25.9-4.4-27,0-27V0L-12.6-23.9z"/>
		<path id="path557_1_" class="st0" d="M-22.2-15.3c2.5-3.6,5.8-6.5,9.7-8.6L0,0L-22.2-15.3z"/>
		<path id="path559_1_" class="st0" d="M-26.8-3.3c0.5-4.3,2.1-8.5,4.6-12.1L0,0L-26.8-3.3z"/>
		<path id="path561_1_" class="st0" d="M-25.2,9.6c-1.5-4.1-2.1-8.5-1.5-12.8L0,0L-25.2,9.6z"/>
		<path id="path563_1_" class="st1" d="M-17.9,20.2c-3.3-2.9-5.8-6.5-7.4-10.6L0,0L-17.9,20.2z"/>
		<path id="path565_1_" class="st1" d="M-6.5,26.2c-4.2-1-8.2-3.1-11.4-6L0,0L-6.5,26.2z"/>
		<path id="path567_1_" class="st1" d="M6.5,26.2c-4.2,1-8.7,1-12.9,0L0,0L6.5,26.2z"/>
		<path id="path569_1_" class="st0" d="M17.9,20.2c-3.3,2.9-7.2,5-11.4,6L0,0L17.9,20.2z"/>
		<path id="path571_1_" class="st1" d="M25.2,9.6c-1.5,4.1-4.1,7.7-7.3,10.6L0,0L25.2,9.6z"/>
		<path id="path573_1_" class="st1" d="M26.8-3.3c0.5,4.3,0,8.7-1.5,12.8L0,0L26.8-3.3z"/>
		<path id="path575_1_" class="st1" d="M22.2-15.3c2.5,3.6,4.1,7.7,4.6,12.1L0,0L22.2-15.3z"/>
		<path id="path577_1_" class="st1" d="M12.5-23.9c3.9,2,7.2,5,9.7,8.6L0,0L12.5-23.9z"/>
		<path id="path579_1_" class="st1" d="M0-27c4.4,0,8.7,1.1,12.5,3.1L0,0V-27z"/>
		<circle id="circle581_1_" class="st0" cx="0" cy="0" r="20.2"/>
		<circle id="circle583_1_" class="st1" cx="0" cy="0" r="13.5"/>
		<circle id="circle585_1_" class="st0" cx="0" cy="0" r="6.8"/>
	</g>
</symbol>
<g id="carré_gris_fond">
	<path class="st2" d="M157.1,2.8h885.7c85.2,0,154.2,69,154.2,154.2v885.7c0,85.2-69.1,154.3-154.3,154.3H157.1
		c-85.2,0-154.3-69.1-154.3-154.3V157C2.8,71.8,71.9,2.8,157.1,2.8z"/>
</g>
<g id="flèche_1">
	<path class="st3" d="M1103.3,670.2c0,0,29.3-23.3,29.3-73c0-49.8-29.3-73-29.3-73L787.2,208.4c-26.1-26.1-47.8-33.2-80.2-18.1
		c-32.2,15.3-34.2,53.3-34.2,53.3s0,102.5,0,131.8c0,29.3-25.3,27.5-25.3,27.5s-366.2,0.4-424.1,0.4s-57.9,57.9-57.9,57.9v272.1
		c0,0,0,57.9,57.9,57.9s424.1,0.4,424.1,0.4s25.5-1.8,25.5,27.7c0,29.3,0,131.8,0,131.8s2,38,34.2,53.3s54.1,8,80.2-18.1"/>
</g>
<g id="flèche_2">
	<path class="st4" d="M780.4,670.2c0,0,29.3-23.3,29.3-73c0-49.8-29.3-73-29.3-73l-316-315.8c-26.1-26.1-48-33.2-80.2-18.1
		C352,205.6,350,243.6,350,243.6v131.8c0,29.3-25.5,27.7-25.5,27.7s-152.5,0.4-210.4,0.4s-57.9,57.9-57.9,57.9v272.1
		c0,0,0,57.9,57.9,57.9s210.4,0.4,210.4,0.4S350,790,350,819.5v131.8c0,0,2,38,34.2,53.3s54.1,8,80.2-18.1"/>
</g>
<path d="M965.1-1.2c79,0,157.8,0,236.9,0c-0.4,78.8-0.6,157.8-1,236.7C1122.4,156.6,1043.8,77.6,965.1-1.2z"/>
<path class="st1" d="M865,702.8c0.4,0.2,0.8,0.2,1.2,0.4c-0.4,1.4-0.8,2.8-1.2,4.2V702.8z"/>
<path class="st0" d="M840.5,590.8c0,146.2-118.6,264.7-264.9,264.7S310.6,736.9,310.6,590.8c0-124.6,86.1-229.1,202.2-257.2
	c20.1-4.9,41.1-7.5,62.8-7.5C721.9,326.1,840.5,444.6,840.5,590.8z"/>
<g id="Code">
	<g>
		<g>
			<g>
				<defs>
					<rect id="SVGID_1_" x="334.8" y="334.8" width="530.2" height="530.2"/>
				</defs>
				<clipPath id="SVGID_2_">
					<use xlink:href="#SVGID_1_"  style="overflow:visible;"/>
				</clipPath>
				<g class="st5">
					<g>
						<g>
							<g>
								<defs>
									<rect id="SVGID_3_" x="331.8" y="331.8" width="530.2" height="530.2"/>
								</defs>
								<clipPath id="SVGID_4_">
									<use xlink:href="#SVGID_3_"  style="overflow:visible;"/>
								</clipPath>
								<g class="st6">
									<g>
										<g>
											<g>
												<defs>
													<rect id="SVGID_5_" x="328.8" y="331.8" width="530.2" height="530.2"/>
												</defs>
												<clipPath id="SVGID_6_">
													<use xlink:href="#SVGID_5_"  style="overflow:visible;"/>
												</clipPath>
												<g class="st7">
													<g>
														<g>
															<g>
																<defs>
																	<rect id="SVGID_7_" x="325.6" y="329.8" width="530.2" height="530.2"/>
																</defs>
																<clipPath id="SVGID_8_">
																	<use xlink:href="#SVGID_7_"  style="overflow:visible;"/>
																</clipPath>
																<g class="st8">
																	<g>
																		<g>
																			<g>
																				<defs>
																					<rect id="SVGID_9_" x="322.5" y="327.7" width="530" height="530"/>
																				</defs>
																				<clipPath id="SVGID_10_">
																					<use xlink:href="#SVGID_9_"  style="overflow:visible;"/>
																				</clipPath>
																				<g class="st9">
																					<g>
																						<g>
																							<defs>
																								<rect id="SVGID_11_" x="316.6" y="325.7" width="529.9" height="529.9"/>
																							</defs>
																							<clipPath id="SVGID_12_">
																								<use xlink:href="#SVGID_11_"  style="overflow:visible;"/>
																							</clipPath>
																							<g class="st10">
																								<g>
																									<defs>
																										<rect id="SVGID_13_" x="313.6" y="325.8" width="529.9" height="529.9"/>
																									</defs>
																									<clipPath id="SVGID_14_">
																										<use xlink:href="#SVGID_13_"  style="overflow:visible;"/>
																									</clipPath>
																									<g style="clip-path:url(#SVGID_14_);">
																										
																											<use xlink:href="#_143"  width="54" height="54" x="-27" y="-27" transform="matrix(9.8125 0 0 -9.8125 575.6274 590.7127)" style="overflow:visible;"/>
																									</g>
																								</g>
																							</g>
																						</g>
																					</g>
																				</g>
																			</g>
																		</g>
																	</g>
																</g>
															</g>
														</g>
													</g>
												</g>
											</g>
										</g>
									</g>
								</g>
							</g>
						</g>
					</g>
				</g>
			</g>
		</g>
	</g>
</g>
<ellipse class="st11" cx="575.5" cy="590.8" rx="132.6" ry="132.5"/>
<ellipse class="st0" cx="575.5" cy="590.8" rx="67.3" ry="67.3"/>
<path class="st11" d="M528.1,398.1c13.5-3.3,83.2-19.1,151.5,22.7c54.4,33.3,75.4,83.2,81.5,99.5c20.8-7.8,41.6-15.6,62.4-23.4
	c-7.2-19.6-36.9-93.3-118.1-138.5c-88.3-49.2-174-29.4-192.5-24.7"/>
<path class="st11" d="M399.9,392.4c14.8,16.6,29.5,33.2,44.3,49.7c-58.6,53.8-80.5,136.6-55.8,210.8
	c26.5,79.5,101.7,134.4,187.2,136.1c0,22.2,0,44.5,0,66.7c-27.2,0.1-72.1-3.8-119.9-27.9c-88.5-44.6-121.3-125.5-128.3-143.9
	c-5.5-14.6-15.8-46.1-16.7-87.6c-0.6-27.9,2.9-72.8,26.3-121C356.5,434.8,382.4,407.9,399.9,392.4z"/>
</svg>
