<?xml version="1.0" encoding="utf-8"?>
<!-- Generator: Adobe Illustrator 24.0.0, SVG Export Plug-In . SVG Version: 6.00 Build 0)  -->
<svg version="1.1" id="Calque_1" xmlns="http://www.w3.org/2000/svg" xmlns:xlink="http://www.w3.org/1999/xlink" x="0px" y="0px"
	 viewBox="0 0 1197.7 1197.7" style="enable-background:new 0 0 1197.7 1197.7;" xml:space="preserve">
<style type="text/css">
	.st0{fill:#FFFFFF;}
	.st1{fill:#0A9748;}
	.st2{fill:#DDDDDD;stroke:#000000;stroke-width:4;stroke-miterlimit:10;}
	.st3{fill:#FFFFFF;stroke:#969696;stroke-width:5;stroke-miterlimit:10;}
	.st4{fill:#969696;}
	.st5{fill:#DDDDDD;}
	.st6{clip-path:url(#SVGID_2_);}
	.st7{clip-path:url(#SVGID_4_);}
	.st8{clip-path:url(#SVGID_6_);}
	.st9{clip-path:url(#SVGID_8_);}
</style>
<symbol  id="_173" viewBox="-27 -27 54 54">
	<g>
		<circle id="circle769_1_" class="st0" cx="0" cy="0" r="27"/>
		<path id="path771_1_" class="st0" d="M-12.6,23.9C-8.7,25.9-4.4,27,0,27V0L-12.6,23.9z"/>
		<path id="path773_1_" class="st1" d="M-22.2,15.3c2.5,3.6,5.8,6.5,9.7,8.6L0,0L-22.2,15.3z"/>
		<path id="path775_1_" class="st0" d="M-26.8,3.3c0.5,4.3,2.1,8.5,4.6,12.1L0,0L-26.8,3.3z"/>
		<path id="path777_1_" class="st0" d="M-25.2-9.6c-1.5,4.1-2.1,8.5-1.5,12.8L0,0L-25.2-9.6z"/>
		<path id="path779_1_" class="st1" d="M-17.9-20.2c-3.3,2.9-5.8,6.5-7.4,10.6L0,0L-17.9-20.2z"/>
		<path id="path781_1_" class="st0" d="M-6.5-26.2c-4.2,1-8.2,3.1-11.4,6L0,0L-6.5-26.2z"/>
		<path id="path783_1_" class="st1" d="M6.5-26.2c-4.2-1-8.7-1-12.9,0L0,0L6.5-26.2z"/>
		<path id="path785_1_" class="st0" d="M17.9-20.2c-3.3-2.9-7.2-5-11.4-6L0,0L17.9-20.2z"/>
		<path id="path787_1_" class="st1" d="M25.2-9.6c-1.5-4.1-4.1-7.7-7.3-10.6L0,0L25.2-9.6z"/>
		<path id="path789_1_" class="st1" d="M26.8,3.3c0.5-4.3,0-8.7-1.5-12.8L0,0L26.8,3.3z"/>
		<path id="path791_1_" class="st1" d="M22.2,15.3c2.5-3.6,4.1-7.7,4.6-12.1L0,0L22.2,15.3z"/>
		<path id="path793_1_" class="st1" d="M12.5,23.9c3.9-2,7.2-5,9.7-8.6L0,0L12.5,23.9z"/>
		<path id="path795_1_" class="st1" d="M0,27c4.4,0,8.7-1.1,12.5-3.1L0,0V27z"/>
		<circle id="circle797_1_" class="st0" cx="0" cy="0" r="20.2"/>
		<circle id="circle799_1_" class="st1" cx="0" cy="0" r="13.5"/>
		<circle id="circle801_1_" class="st0" cx="0" cy="0" r="6.8"/>
	</g>
</symbol>
<g id="carré_gris_fond">
	<path class="st2" d="M156.3,2.6h883c84.9,0,153.7,68.8,153.7,153.7v883c0,84.9-68.8,153.7-153.7,153.7h-883
		c-84.9,0-153.7-68.8-153.7-153.7v-883C2.6,71.4,71.4,2.6,156.3,2.6z"/>
</g>
<g id="block_rouge">
	<path class="st3" d="M327.2,1062.2H857c55,0,99.6-44.6,99.6-99.6V408.9c0-55-44.6-99.6-99.6-99.6H327.2c-55,0-99.6,44.6-99.6,99.6
		v553.7C227.6,1017.6,272.2,1062.2,327.2,1062.2z"/>
</g>
<g id="pince">
	<path class="st4" d="M1108,398.7c0-136.3-110.5-246.7-246.7-246.7H322.9c-136.2,0-246.7,110.4-246.7,246.7v285.1
		c0,2.3,1.8,4.1,4.1,4.1h125.9c2.3,0,4.1-1.8,4.1-4.1l0,0V413.3c0-67.3,54.6-121.8,121.8-121.8h520c67.3,0,121.8,54.6,121.8,121.8
		v270.5l0,0c0,2.3,1.8,4.1,4.1,4.1h125.9c2.3,0,4.1-1.8,4.1-4.1V398.7z"/>
</g>
<g id="flèche">
	<path class="st5" d="M561.3,503.6c0,0,12.3-15.5,38.8-15.5c26.4,0,38.8,15.5,38.8,15.5l167.4,167.6c13.8,13.8,17.7,25.4,9.6,42.5
		c-8.1,17.1-28.2,18.2-28.2,18.2h-69.9c-15.5,0-14.6,13.5-14.6,13.5s-0.2,80.8-0.2,111.5c0,30.7-30.7,30.7-30.7,30.7H528
		c0,0-30.7,0-30.7-30.7c0-30.7-0.2-111.5-0.2-111.5s0.9-13.5-14.6-13.5h-69.9c0,0-20.1-1.1-28.2-18.2s-4.2-28.7,9.6-42.5"/>
</g>
<g id="Code">
	<g>
		<defs>
			<rect id="SVGID_1_" x="322" y="415.7" width="540.2" height="540.2"/>
		</defs>
		<clipPath id="SVGID_2_">
			<use xlink:href="#SVGID_1_"  style="overflow:visible;"/>
		</clipPath>
		<g class="st6">
			<g>
				<defs>
					<rect id="SVGID_3_" x="324.7" y="412.9" width="540.2" height="540.2"/>
				</defs>
				<clipPath id="SVGID_4_">
					<use xlink:href="#SVGID_3_"  style="overflow:visible;"/>
				</clipPath>
				<g class="st7">
					<g>
						<defs>
							<rect id="SVGID_5_" x="327.5" y="412.9" width="540.2" height="540.2"/>
						</defs>
						<clipPath id="SVGID_6_">
							<use xlink:href="#SVGID_5_"  style="overflow:visible;"/>
						</clipPath>
						<g class="st8">
							<g>
								<defs>
									<rect id="SVGID_7_" x="331.1" y="412.5" width="540.5" height="540.5"/>
								</defs>
								<clipPath id="SVGID_8_">
									<use xlink:href="#SVGID_7_"  style="overflow:visible;"/>
								</clipPath>
								<g class="st9">
									
										<use xlink:href="#_173"  width="54" height="54" x="-27" y="-27" transform="matrix(-9.9989 0 0 9.9989 607.5471 680.4874)" style="overflow:visible;"/>
								</g>
							</g>
						</g>
					</g>
				</g>
			</g>
		</g>
	</g>
</g>
<path d="M959,0c78.8,0,157.6,0,236.5,0c-0.3,78.8-0.6,157.5-1,236.3C1116,157.5,1037.5,78.8,959,0z"/>
</svg>
