<?xml version="1.0" encoding="utf-8"?>
<!-- Generator: Adobe Illustrator 24.0.0, SVG Export Plug-In . SVG Version: 6.00 Build 0)  -->
<svg version="1.1" id="Calque_1" xmlns="http://www.w3.org/2000/svg" xmlns:xlink="http://www.w3.org/1999/xlink" x="0px" y="0px"
	 viewBox="0 0 1197.7 1197.7" style="enable-background:new 0 0 1197.7 1197.7;" xml:space="preserve">
<style type="text/css">
	.st0{fill:#FFFFFF;}
	.st1{fill:#0A9748;}
	.st2{fill:#DDDDDD;stroke:#000000;stroke-width:4;stroke-miterlimit:10;}
	.st3{fill:#969696;}
	.st4{fill:#DDDDDD;}
	.st5{clip-path:url(#SVGID_2_);}
	.st6{clip-path:url(#SVGID_4_);}
	.st7{clip-path:url(#SVGID_6_);}
	.st8{clip-path:url(#SVGID_8_);}
</style>
<symbol  id="_179" viewBox="-27 -27 54 54">
	<g>
		<circle id="circle805_2_" class="st0" cx="0" cy="0" r="27"/>
		<path id="path807_2_" class="st0" d="M-12.6,23.9C-8.7,25.9-4.4,27,0,27V0L-12.6,23.9z"/>
		<path id="path809_2_" class="st0" d="M-22.2,15.3c2.5,3.6,5.8,6.5,9.7,8.6L0,0L-22.2,15.3z"/>
		<path id="path811_2_" class="st1" d="M-26.8,3.3c0.5,4.3,2.1,8.5,4.6,12.1L0,0L-26.8,3.3z"/>
		<path id="path813_2_" class="st1" d="M-25.2-9.6c-1.5,4.1-2.1,8.5-1.5,12.8L0,0L-25.2-9.6z"/>
		<path id="path815_2_" class="st0" d="M-17.9-20.2c-3.3,2.9-5.8,6.5-7.4,10.6L0,0L-17.9-20.2z"/>
		<path id="path817_2_" class="st0" d="M-6.5-26.2c-4.2,1-8.2,3.1-11.4,6L0,0L-6.5-26.2z"/>
		<path id="path819_2_" class="st1" d="M6.5-26.2c-4.2-1-8.7-1-12.9,0L0,0L6.5-26.2z"/>
		<path id="path821_2_" class="st0" d="M17.9-20.2c-3.3-2.9-7.2-5-11.4-6L0,0L17.9-20.2z"/>
		<path id="path823_2_" class="st1" d="M25.2-9.6c-1.5-4.1-4.1-7.7-7.3-10.6L0,0L25.2-9.6z"/>
		<path id="path825_2_" class="st1" d="M26.8,3.3c0.5-4.3,0-8.7-1.5-12.8L0,0L26.8,3.3z"/>
		<path id="path827_2_" class="st1" d="M22.2,15.3c2.5-3.6,4.1-7.7,4.6-12.1L0,0L22.2,15.3z"/>
		<path id="path829_2_" class="st1" d="M12.5,23.9c3.9-2,7.2-5,9.7-8.6L0,0L12.5,23.9z"/>
		<path id="path831_2_" class="st1" d="M0,27c4.4,0,8.7-1.1,12.5-3.1L0,0V27z"/>
		<circle id="circle833_2_" class="st0" cx="0" cy="0" r="20.2"/>
		<circle id="circle835_2_" class="st1" cx="0" cy="0" r="13.5"/>
		<circle id="circle837_2_" class="st0" cx="0" cy="0" r="6.8"/>
	</g>
</symbol>
<g id="carré_gris_fond">
	<path class="st2" d="M155.9,1.8h885.3c85.1,0,154.1,69,154.1,154.1v885.3c0,85.1-69,154.1-154.1,154.1H155.9
		c-85.1,0-154.1-69-154.1-154.1V155.9C1.8,70.8,70.8,1.8,155.9,1.8z"/>
</g>
<g id="block_bleu">
	<path d="M325.4,1061.9h531c55.1,0,99.8-44.7,99.8-99.8V407.2c0-55.1-44.7-99.8-99.8-99.8h-531c-55.1,0-99.8,44.7-99.8,99.8v554.9
		C225.6,1017.2,270.2,1061.9,325.4,1061.9z"/>
</g>
<g id="pince">
	<path class="st3" d="M1107.8,397c0-136.6-110.7-247.3-247.3-247.3H321c-136.5,0-247.2,110.7-247.2,247.2v285.7
		c0,2.3,1.8,4.1,4.1,4.1h126.2c2.3,0,4.1-1.8,4.1-4.1l0,0v-271c0-67.4,54.7-122.1,122.1-122.1h521.1c67.4,0,122.1,54.7,122.1,122.1
		v271l0,0c0,2.3,1.8,4.1,4.1,4.1h126.2c2.3,0,4.1-1.8,4.1-4.1V397z"/>
</g>
<g id="flèche">
	<path class="st4" d="M560,502.1c0,0,12.4-15.5,38.8-15.5c26.5,0,38.8,15.5,38.8,15.5l167.7,168c13.8,13.8,17.7,25.4,9.6,42.6
		c-8.1,17.1-28.3,18.2-28.3,18.2h-70c-15.6,0-14.7,13.5-14.7,13.5s-0.2,81-0.2,111.8c0,30.8-30.7,30.8-30.7,30.8H526.5
		c0,0-30.7,0-30.7-30.8c0-30.8-0.2-111.8-0.2-111.8s0.9-13.5-14.7-13.5h-70c0,0-20.2-1.1-28.3-18.2s-4.2-28.7,9.6-42.6"/>
</g>
<g id="Code">
	<g>
		<defs>
			<rect id="SVGID_1_" x="315.8" y="418.2" width="541.9" height="541.9"/>
		</defs>
		<clipPath id="SVGID_2_">
			<use xlink:href="#SVGID_1_"  style="overflow:visible;"/>
		</clipPath>
		<g class="st5">
			<g>
				<defs>
					<rect id="SVGID_3_" x="318.6" y="415.4" width="541.9" height="541.9"/>
				</defs>
				<clipPath id="SVGID_4_">
					<use xlink:href="#SVGID_3_"  style="overflow:visible;"/>
				</clipPath>
				<g class="st6">
					<g>
						<defs>
							<rect id="SVGID_5_" x="321.3" y="415.4" width="541.9" height="541.9"/>
						</defs>
						<clipPath id="SVGID_6_">
							<use xlink:href="#SVGID_5_"  style="overflow:visible;"/>
						</clipPath>
						<g class="st7">
							<g>
								<defs>
									<rect id="SVGID_7_" x="324.9" y="415" width="542.2" height="542.2"/>
								</defs>
								<clipPath id="SVGID_8_">
									<use xlink:href="#SVGID_7_"  style="overflow:visible;"/>
								</clipPath>
								<g class="st8">
									
										<use xlink:href="#_179"  width="54" height="54" x="-27" y="-27" transform="matrix(-10.0403 0 0 10.0403 602.0567 684.1257)" style="overflow:visible;"/>
								</g>
							</g>
						</g>
					</g>
				</g>
			</g>
		</g>
	</g>
</g>
<path class="st1" d="M857.6,594.1c7.2,20.5,15.9,52.9,15.5,93.2c-0.4,37.4-8.4,67.6-15.3,87.5"/>
<polygon class="st1" points="348,588.7 349.1,586.3 412.5,611.7 412,613 "/>
<path d="M961.1,0c78.8,0,157.6,0,236.5,0c-0.3,78.8-0.6,157.5-1,236.3C1118.2,157.5,1039.7,78.8,961.1,0z"/>
<g>
</g>
<g>
</g>
<g>
</g>
</svg>
