<?xml version="1.0" encoding="UTF-8"?><svg xmlns="http://www.w3.org/2000/svg" xmlns:xlink="http://www.w3.org/1999/xlink" viewBox="0 0 600 600"><defs><style>.cls-1{fill:none;}.cls-2{clip-path:url(#clippath);}.cls-3{fill:#fff;}.cls-4{fill:#969696;}.cls-5{fill:#ddd;}.cls-6{fill:#233f8f;}.cls-7{fill:#0a9748;}.cls-8{clip-path:url(#clippath-1);}.cls-9{clip-path:url(#clippath-3);}.cls-10{clip-path:url(#clippath-2);}</style><symbol id="_179" viewBox="0 0 54 54"><g><circle id="circle805" class="cls-3" cx="27" cy="27" r="27"/><path id="path807" class="cls-3" d="M14.4,50.9c3.9,2,8.2,3.1,12.6,3.1V27l-12.6,23.9Z"/><path id="path809" class="cls-3" d="M4.8,42.3c2.5,3.6,5.8,6.5,9.7,8.6l12.5-23.9L4.8,42.3Z"/><path id="path811" class="cls-7" d="M.2,30.3c.5,4.3,2.1,8.5,4.6,12.1l22.2-15.4L.2,30.3Z"/><path id="path813" class="cls-7" d="M1.8,17.4C.3,21.5-.3,25.9,.3,30.2l26.7-3.2L1.8,17.4Z"/><path id="path815" class="cls-3" d="M9.1,6.8c-3.3,2.9-5.8,6.5-7.4,10.6l25.3,9.6L9.1,6.8Z"/><path id="path817" class="cls-3" d="M20.5,.8c-4.2,1-8.2,3.1-11.4,6L27,27,20.5,.8Z"/><path id="path819" class="cls-7" d="M33.5,.8C29.3-.2,24.8-.2,20.6,.8l6.4,26.2L33.5,.8Z"/><path id="path821" class="cls-3" d="M44.9,6.8c-3.3-2.9-7.2-5-11.4-6l-6.5,26.2L44.9,6.8Z"/><path id="path823" class="cls-7" d="M52.2,17.4c-1.5-4.1-4.1-7.7-7.3-10.6L27,27l25.2-9.6Z"/><path id="path825" class="cls-7" d="M53.8,30.3c.5-4.3,0-8.7-1.5-12.8l-25.3,9.5,26.8,3.3Z"/><path id="path827" class="cls-7" d="M49.2,42.3c2.5-3.6,4.1-7.7,4.6-12.1l-26.8-3.2,22.2,15.3Z"/><path id="path829" class="cls-7" d="M39.5,50.9c3.9-2,7.2-5,9.7-8.6l-22.2-15.3,12.5,23.9Z"/><path id="path831" class="cls-7" d="M27,54c4.4,0,8.7-1.1,12.5-3.1l-12.5-23.9v27Z"/><circle id="circle833" class="cls-3" cx="27" cy="27" r="20.2"/><circle id="circle835" class="cls-7" cx="27" cy="27" r="13.5"/><circle id="circle837" class="cls-3" cx="27" cy="27" r="6.8"/></g></symbol><clipPath id="clippath"><rect class="cls-1" x="158.23" y="209.51" width="271.49" height="271.49"/></clipPath><clipPath id="clippath-1"><rect class="cls-1" x="159.61" y="208.13" width="271.49" height="271.49"/></clipPath><clipPath id="clippath-2"><rect class="cls-1" x="160.99" y="208.13" width="271.49" height="271.49"/></clipPath><clipPath id="clippath-3"><rect class="cls-1" x="162.78" y="207.93" width="271.63" height="271.63"/></clipPath></defs><g id="carré_gris_fond"><rect class="cls-5" width="600" height="600" rx="77.49" ry="77.49"/></g><g id="block_bleu"><path class="cls-6" d="M163,532H429c27.62,0,50-22.39,50-50V204c0-27.62-22.39-50-50-50H163c-27.62,0-50,22.39-50,50V482c0,27.62,22.39,50,50,50Z"/></g><g id="pince"><path class="cls-4" d="M554.97,198.87c0-68.41-55.46-123.87-123.87-123.87H160.81c-68.39,0-123.84,55.44-123.84,123.84v143.14c0,1.13,.91,2.04,2.04,2.04h63.22c1.13,0,2.04-.91,2.04-2.04h0V206.19c0-33.78,27.39-61.17,61.17-61.17H426.5c33.78,0,61.17,27.39,61.17,61.17v135.79h0c0,1.13,.91,2.04,2.04,2.04h63.22c1.13,0,2.04-.91,2.04-2.04V198.87Z"/></g><g id="flèche"><path class="cls-5" d="M280.54,251.54s6.2-7.79,19.46-7.79c13.26,0,19.46,7.79,19.46,7.79l84.02,84.14c6.91,6.92,8.87,12.74,4.81,21.33-4.06,8.59-14.17,9.12-14.17,9.12h-35.08c-7.8,0-7.34,6.77-7.34,6.77,0,0-.09,40.58-.09,55.99,0,15.41-15.4,15.42-15.4,15.42h-72.43s-15.4,0-15.4-15.42c0-15.41-.09-55.99-.09-55.99,0,0,.46-6.77-7.34-6.77h-35.08s-10.11-.53-14.17-9.12c-4.06-8.59-2.1-14.4,4.81-21.33"/></g><g id="Code"><g class="cls-2"><g class="cls-8"><g class="cls-10"><g class="cls-9"><use width="54" height="54" transform="translate(435.92 207.93) rotate(-180) scale(5.03 -5.03)" xlink:href="#_179"/></g></g></g></g></g></svg>